<?xml version="1.0" encoding="iso-8859-1"?>
<!-- Uploaded to: SVG Repo, www.svgrepo.com, Generator: SVG Repo Mixer Tools -->
<svg height="800px" width="800px" version="1.1" id="Layer_1" xmlns="http://www.w3.org/2000/svg" xmlns:xlink="http://www.w3.org/1999/xlink" 
	 viewBox="0 0 511.999 511.999" xml:space="preserve">
<path style="fill:#FF9F99;" d="M183.784,300.834c-22.656-48.58-1.545-106.581,47.07-129.246c12.996-6.059,26.812-9.131,41.054-9.131
	c37.675,0,72.303,22.05,88.218,56.183c0.068,0.145,0.137,0.282,0.196,0.427c0.145-0.068,0.29-0.137,0.435-0.205
	c12.988-6.059,26.803-9.131,41.054-9.131c37.683,0,72.303,22.059,88.218,56.192c10.982,23.543,12.134,49.963,3.251,74.377
	c-8.883,24.414-26.752,43.913-50.304,54.895l-177.195,82.628L183.784,300.834z"/>
<path style="fill:#FF877F;" d="M55.016,262.545C5.027,220.603-1.518,145.774,40.449,95.752
	c22.554-26.871,55.629-42.291,90.735-42.291c27.767,0,54.784,9.839,76.066,27.699c0.981,0.819,1.946,1.673,2.91,2.551
	c0.794-1.033,1.604-2.039,2.432-3.021c22.545-26.871,55.629-42.291,90.752-42.291c27.75,0,54.758,9.839,76.049,27.708
	c39.578,33.212,52.727,87.808,32.708,135.868l-3.234,7.765l-8.405,0.119c-10.53,0.145-20.651,1.869-30.097,5.12l-9.771,3.362
	l-5.342-8.841c-17.562-29.022-49.493-47.044-83.345-47.044c-14.251,0-28.066,3.072-41.054,9.131
	c-23.509,10.965-41.361,30.464-50.253,54.912c-8.9,24.448-7.765,50.859,3.2,74.368l29.167,62.967l-19.866,15.164L55.016,262.545z"/>
<path style="fill:#573A32;" d="M387.619,56.294c-23.586-19.789-53.521-30.694-84.275-30.694c-35.994,0-70.05,14.609-94.737,40.371
	c-22.4-16.375-49.562-25.31-77.406-25.31c-38.912,0-75.571,17.084-100.565,46.865C-15.862,142.95-8.609,225.86,46.807,272.366
	l174.08,146.807c1.527,1.289,3.243,2.219,5.009,3.021l22.869,49.365c2.859,6.17,8.055,10.948,14.438,13.286
	c2.85,1.033,5.828,1.553,8.798,1.553c3.703,0,7.398-0.802,10.82-2.398l165.564-77.201c26.65-12.425,46.865-34.483,56.917-62.114
	c10.052-27.631,8.755-57.523-3.678-84.173c-14.498-31.104-42.812-53.077-75.511-60.561
	C443.666,149.947,430.551,92.322,387.619,56.294z M63.267,252.757c-44.681-37.487-50.5-104.098-13.013-148.77
	c20.89-24.892,50.816-37.726,80.947-37.726c23.953,0,48.043,8.107,67.823,24.704c4.838,4.062,9.011,8.602,12.937,13.278
	c3.046-5.291,6.374-10.487,10.436-15.326c20.881-24.883,50.807-37.717,80.947-37.717c23.953,0,48.043,8.107,67.823,24.704
	c36.207,30.387,46.379,79.71,29.116,121.148c-11.682,0.162-23.108,2.039-34.082,5.82c-19.755-32.666-55.612-53.222-94.293-53.222
	c-16.128,0-31.761,3.473-46.464,10.334c-55.014,25.651-78.899,91.273-53.248,146.287l29.158,62.933L63.267,252.757z
	 M478.431,271.325c19.721,42.283,1.425,92.553-40.866,112.265l-165.564,77.21l-76.604-165.35
	c-19.721-42.283-1.425-92.553,40.866-112.265c11.554-5.385,23.689-7.936,35.652-7.936c31.812,0,62.285,18.065,76.621,48.794
	c2.133,4.582,3.627,9.284,4.89,14.003c4.002-2.807,8.166-5.444,12.749-7.586c11.554-5.385,23.689-7.936,35.652-7.936
	C433.623,222.532,464.095,240.588,478.431,271.325z"/>
</svg>